<?xml version="1.0" encoding="UTF-8" standalone="no"?>
<svg
   xmlns:dc="http://purl.org/dc/elements/1.1/"
   xmlns:cc="http://creativecommons.org/ns#"
   xmlns:rdf="http://www.w3.org/1999/02/22-rdf-syntax-ns#"
   xmlns:svg="http://www.w3.org/2000/svg"
   xmlns="http://www.w3.org/2000/svg"
   xml:space="preserve"
   id="Ebene_1"
   viewBox="0 0 192.42799 454.97461"
   height="454.97461"
   width="192.42799"
   version="1.0"><metadata
     id="metadata45"><rdf:RDF><cc:Work
         rdf:about=""><dc:format>image/svg+xml</dc:format><dc:type
           rdf:resource="http://purl.org/dc/dcmitype/StillImage" /><dc:title></dc:title></cc:Work></rdf:RDF></metadata><defs
     id="defs57" /><path
     id="path26575"
     style="fill:#115aac;stroke:#010101;fill-opacity:1"
     d="m 0.5,176.25962 0,39.285 191.428,0 0,-38.57 -191.428,-0.715 z" /><path
     id="ledLight"
     d="M 33,175.90262 33,46.973619 c 0,0 13.572,-44.6430003 71.072,-46.42800029 57.5,-1.78500001 71.786,49.28600029 71.786,49.28600029 l 0,127.143001" /><path
     id="path26579"
     style="fill:#818180;stroke:#010101"
     d="m 57.286,176.25962 0,-127.143001 15.357,0 22.865,13.201 3.921,10.371 -19.286,7.143 0,96.428001 -22.857,0 z" /><path
     id="path26581"
     style="fill:#818180;stroke:#010101"
     d="m 87.286,47.331619 68.928,0 0,128.928001 -35.356,0 -16.786,-32.143 0,-54.643001 14.643,-23.571 -31.429,-18.571 z" /><path
     id="path26583"
     style="fill:#818180;stroke:#010101"
     d="m 57.286,216.25962 0,238.215 24.286,0 0,-238.215 -24.286,0 z" /><path
     id="path26585"
     style="fill:#818180;stroke:#010101"
     d="m 120.143,215.54462 0,162.145 24.285,0 0,-162.145 -24.285,0 z" /></svg>